:SAMPLES-PER-SECOND 30
:FULLY-SPECIFIED
:DEGREES
258
root  36.0985 39.475 14.1779 175.536 47.8607 176.943
RightUpLeg  -13.7383 -21.8417 -8.27852
RightLeg  47.5828 -8.86736 -10.5712
RightFoot  -5.06589 -0.275647 4.40101
RightToes  0.000482159 0.542163 -0.142577
Spine  26.8806 -0.507926 0.380588
Spine1  10.6445 1.97833 -8.08876
HEad  -4.40798 48.5172 -27.6049
LeftShoulder1  8.89388 -13.8272 -44.7083
LeftArm  -10.3963 15.8319 -18.4476
LeftForeArm  11.0144 -21.2073 -4.22501
LeftHand  -0.25398 0.0180481 5.50724
RightShoulder  5.13428 9.2464 34.3171
RightArm  -1.35076 -16.0732 35.027
RightForeArm  -1.11586 28.4265 6.21328
RightHand  -1.04023 1.37203 -17.9288
LeftUpLeg  -10.3905 19.1475 -7.70845
LeftLeg  13.4493 20.9261 0.0151265
LeftFoot  -5.37187 -0.505591 10.2908
LeftToes  1.06248e-005 4.65855e-005 -8.18498e-006
259
root  35.1777 39.4957 13.7576 175.346 51.6882 176.822
RightUpLeg  -9.81589 -24.2961 -6.50078
RightLeg  48.7418 -8.28115 -10.3177
RightFoot  -6.2704 -0.292819 5.65895
RightToes  0.000482159 0.542163 -0.142577
Spine  24.0957 0.0588471 0.22267
Spine1  10.9953 2.75784 -8.57896
HEad  -2.92687 47.8612 -25.1208
LeftShoulder1  8.87621 -13.6659 -45.053
LeftArm  -9.19185 18.6415 -18.4959
LeftForeArm  11.3713 -19.635 -4.24645
LeftHand  -0.25398 0.0180481 5.50724
RightShoulder  5.13498 9.17205 34.556
RightArm  -1.09583 -15.5369 35.3188
RightForeArm  -0.151977 31.4358 6.91294
RightHand  -0.955352 0.879418 -17.723
LeftUpLeg  -9.22673 13.7114 -7.21169
LeftLeg  10.0419 30.0522 -2.49101
LeftFoot  -4.58148 -0.671749 11.8064
LeftToes  1.06248e-005 4.65855e-005 -8.18498e-006
260
root  34.2656 39.4535 13.3424 175.255 55.6688 176.673
RightUpLeg  -5.20938 -26.9075 -5.60411
RightLeg  48.095 -7.02752 -8.6535
RightFoot  -6.94999 -0.342005 7.65558
RightToes  0.000482159 0.542163 -0.142577
Spine  21.1207 0.608833 0.380479
Spine1  11.1606 3.63158 -9.20736
HEad  -0.482747 46.1212 -21.785
LeftShoulder1  8.83146 -13.4483 -45.415
LeftArm  -8.52775 21.6133 -18.737
LeftForeArm  12.705 -18.1552 -4.31469
LeftHand  -0.25398 0.0180481 5.50724
RightShoulder  5.141 9.07666 34.9059
RightArm  -0.867223 -14.7245 35.3633
RightForeArm  0.458732 33.7936 7.5066
RightHand  -0.814104 0.0811401 -17.2498
LeftUpLeg  -8.57399 9.30343 -6.9461
LeftLeg  6.1542 38.3077 -5.65459
LeftFoot  -4.24002 -0.821477 13.5907
LeftToes  1.06248e-005 4.65855e-005 -8.18498e-006
261
root  33.2791 39.3027 12.9647 174.842 59.6568 176.252
RightUpLeg  -0.30172 -28.8151 -5.72132
RightLeg  46.299 -3.7688 -4.55563
RightFoot  -6.38191 -0.535876 11.1971
RightToes  0.000482159 0.542163 -0.142577
Spine  18.5487 1.12061 0.718273
Spine1  11.0988 4.48313 -10.055
HEad  1.84185 43.3864 -18.6806
LeftShoulder1  8.79127 -13.2087 -45.8715
LeftArm  -8.39909 24.5706 -19.1909
LeftForeArm  14.3079 -17.1284 -4.3391
LeftHand  -0.25398 0.0180481 5.50724
RightShoulder  5.13256 8.97692 35.1604
RightArm  -0.702866 -13.5876 35.3159
RightForeArm  1.18273 35.5445 7.95689
RightHand  -0.744345 -0.294764 -16.9031
LeftUpLeg  -8.86847 6.36026 -7.1202
LeftLeg  3.08741 45.251 -8.31503
LeftFoot  -4.00174 -1.02411 16.2193
LeftToes  1.06248e-005 4.65855e-005 -8.18498e-006
262
root  32.1757 39.0804 12.6204 173.884 63.2191 175.521
RightUpLeg  4.71062 -29.4558 -6.32928
RightLeg  43.0878 0.578247 0.245742
RightFoot  -5.36602 -0.81657 14.9907
RightToes  0.000482159 0.542163 -0.142577
Spine  16.5674 1.50523 1.28161
Spine1  11.2583 5.17223 -10.7499
HEad  3.2553 40.1526 -16.5408
LeftShoulder1  8.7684 -13.016 -46.298
LeftArm  -8.54306 27.0465 -20.0343
LeftForeArm  15.6217 -16.4639 -4.32396
LeftHand  -0.25398 0.0180481 5.50724
RightShoulder  5.08589 8.90306 35.0311
RightArm  -0.817566 -12.2423 35.4185
RightForeArm  1.73308 36.9448 8.33537
RightHand  -0.7577 -0.212828 -16.9382
LeftUpLeg  -9.63931 4.646 -7.60437
LeftLeg  0.704935 50.1933 -10.3806
LeftFoot  -3.26465 -1.3024 18.5486
LeftToes  1.06248e-005 4.65855e-005 -8.18498e-006
263
root  31.0136 38.908 12.2832 172.954 66.2488 175.159
RightUpLeg  9.83938 -29.4736 -6.78937
RightLeg  37.4549 4.0357 3.05072
RightFoot  -6.51291 -0.697618 15.2381
RightToes  0.000482159 0.542163 -0.142577
Spine  15.0551 1.71023 2.67214
Spine1  11.627 5.74454 -11.2781
HEad  4.05229 36.8453 -15.0812
LeftShoulder1  8.72614 -12.8835 -46.4513
LeftArm  -8.89819 28.7717 -21.3912
LeftForeArm  16.9956 -16.1443 -4.26503
LeftHand  -0.25398 0.0180481 5.50724
RightShoulder  4.98753 8.82257 34.5084
RightArm  -1.3021 -10.9848 35.6081
RightForeArm  1.76863 38.303 8.74816
RightHand  -0.781744 -0.185502 -17.3857
LeftUpLeg  -9.53394 3.31075 -7.86789
LeftLeg  -3.98519 53.4211 -14.2226
LeftFoot  -1.93448 -1.64421 19.9208
LeftToes  1.06248e-005 4.65855e-005 -8.18498e-006
264
root  29.7536 38.7484 11.9546 173.056 69.2043 176.017
RightUpLeg  14.1173 -29.2914 -6.70752
RightLeg  30.4167 5.43727 3.21076
RightFoot  -11.4587 -0.090876 10.8545
RightToes  0.000482159 0.542163 -0.142577
Spine  14.2859 1.82743 5.36638
Spine1  11.6555 6.38688 -12.0588
HEad  4.51974 33.5284 -14.0726
LeftShoulder1  8.67775 -12.7689 -46.5207
LeftArm  -9.24063 29.6497 -22.8786
LeftForeArm  18.8567 -16.522 -4.12199
LeftHand  -0.25398 0.0180481 5.50724
RightShoulder  4.88193 8.71065 34.0208
RightArm  -1.953 -9.82032 35.3516
RightForeArm  1.45017 39.6861 9.20819
RightHand  -0.782187 -0.365597 -17.9907
LeftUpLeg  -9.53893 2.73374 -7.65307
LeftLeg  -8.7463 55.4406 -18.2035
LeftFoot  -0.450187 -2.06556 21.402
LeftToes  1.06248e-005 4.65855e-005 -8.18498e-006
265
root  28.2779 38.5643 11.6623 175.112 72.1518 178.843
RightUpLeg  15.8103 -28.3299 -5.5073
RightLeg  24.8605 4.34948 2.08788
RightFoot  -17.5909 0.174684 5.24171
RightToes  0.000482159 0.542163 -0.142577
Spine  14.8531 1.81105 9.0587
Spine1  11.1071 6.98183 -13.0818
HEad  4.12667 30.3494 -13.9532
LeftShoulder1  8.69154 -12.6447 -46.9632
LeftArm  -9.21567 29.4311 -23.9795
LeftForeArm  21.0399 -17.746 -3.92043
LeftHand  -0.25398 0.0180481 5.50724
RightShoulder  4.83739 8.6268 33.9306
RightArm  -2.62616 -8.31392 34.2755
RightForeArm  1.18067 40.7514 9.57755
RightHand  -0.804821 -0.351585 -18.4543
LeftUpLeg  -11.079 3.00737 -6.61802
LeftLeg  -9.02059 55.5164 -18.7503
LeftFoot  2.02771 -2.80488 23.3695
LeftToes  1.06248e-005 4.65855e-005 -8.18498e-006
266
root  26.6191 38.4722 11.4287 179.373 74.1727 -176.068
RightUpLeg  14.5617 -25.8759 -2.96285
RightLeg  22.613 1.07944 1.14025
RightFoot  -21.0794 -0.0108252 1.43336
RightToes  0.000482159 0.542163 -0.142577
Spine  16.7005 1.32097 12.8255
Spine1  10.401 7.04726 -13.5077
HEad  2.46326 27.6409 -14.9543
LeftShoulder1  8.79192 -12.575 -47.7242
LeftArm  -8.93854 28.0032 -24.8041
LeftForeArm  23.0312 -19.2588 -3.73721
LeftHand  -0.25398 0.0180481 5.50724
RightShoulder  4.85476 8.64826 34.0023
RightArm  -3.4985 -6.25476 32.8316
RightForeArm  1.05117 40.9288 9.64608
RightHand  -0.905776 0.186878 -18.8123
LeftUpLeg  -13.3943 6.02145 -5.58146
LeftLeg  -4.20652 47.2834 -14.7279
LeftFoot  6.89525 -3.60436 22.1407
LeftToes  1.06248e-005 4.65855e-005 -8.18498e-006
267
root  24.9404 38.4968 11.2506 -176.536 74.6902 -171.112
RightUpLeg  12.2965 -23.876 -0.771539
RightLeg  22.4938 -1.97372 0.718471
RightFoot  -21.9393 -0.199 -0.563729
RightToes  0.000482159 0.542163 -0.142577
Spine  18.8764 0.425703 15.4287
Spine1  9.97937 6.39504 -12.6608
HEad  0.324221 25.4974 -16.2966
LeftShoulder1  8.93621 -12.6733 -48.2198
LeftArm  -8.77226 25.8952 -25.7644
LeftForeArm  24.3635 -20.3824 -3.63087
LeftHand  -0.25398 0.0180481 5.50724
RightShoulder  4.87534 8.75842 33.8133
RightArm  -4.65197 -4.16605 31.8756
RightForeArm  0.735726 39.8123 9.29491
RightHand  -1.0605 1.00349 -19.2692
LeftUpLeg  -16.9851 16.1055 -7.92051
LeftLeg  4.54732 23.0762 -6.44638
LeftFoot  12.2474 -2.674 12.4429
LeftToes  1.06248e-005 4.65855e-005 -8.18498e-006
268
root  23.4318 38.5532 11.099 -174.754 74.6255 -168.6
RightUpLeg  10.2781 -23.4476 -0.00911035
RightLeg  22.8997 -3.34403 0.677375
RightFoot  -21.8571 -0.30715 -1.73321
RightToes  0.000482159 0.542163 -0.142577
Spine  20.3987 -0.227574 16.4443
Spine1  9.64442 5.4511 -10.8841
HEad  -0.862001 23.7265 -16.775
LeftShoulder1  9.07546 -12.9485 -48.1531
LeftArm  -8.62273 23.9757 -26.6193
LeftForeArm  24.8076 -21.1918 -3.59706
LeftHand  -0.25398 0.0180481 5.50724
RightShoulder  4.87731 8.85491 33.5204
RightArm  -5.67627 -2.79813 31.7532
RightForeArm  -0.168849 37.3881 8.58506
RightHand  -1.1798 1.56515 -19.7343
LeftUpLeg  -21.0946 22.3965 -10.8044
LeftLeg  11.7157 -3.12775 -1.64723
LeftFoot  12.9891 0.298104 -2.00848
LeftToes  1.06248e-005 4.65855e-005 -8.18498e-006
269
root  22.1236 38.7294 10.9527 -175.785 74.946 -169.474
RightUpLeg  8.02225 -22.4051 -0.077697
RightLeg  23.0704 -4.66559 0.607448
RightFoot  -20.9291 -0.349327 -2.48238
RightToes  0.000482159 0.542163 -0.142577
Spine  21.0983 -0.383331 15.9381
Spine1  9.28903 4.7556 -9.06883
HEad  -0.534187 22.2134 -15.9614
LeftShoulder1  9.17548 -13.2458 -47.816
LeftArm  -8.34152 22.6713 -26.615
LeftForeArm  24.7031 -22.2595 -3.62579
LeftHand  -0.25398 0.0180481 5.50724
RightShoulder  4.89258 8.86631 33.6073
RightArm  -5.99563 -2.47023 32.2933
RightForeArm  -1.85496 33.9898 7.69402
RightHand  -1.23572 1.80426 -19.9877
LeftUpLeg  -21.7078 13.5711 -7.43229
LeftLeg  16.7452 -10.1104 -2.8571
LeftFoot  8.79175 1.77328 -10.1772
LeftToes  1.06248e-005 4.65855e-005 -8.18498e-006
